<?xml version="1.0" encoding="UTF-8" standalone="no"?>
<svg
   xmlns:dc="http://purl.org/dc/elements/1.1/"
   xmlns:cc="http://creativecommons.org/ns#"
   xmlns:rdf="http://www.w3.org/1999/02/22-rdf-syntax-ns#"
   xmlns:svg="http://www.w3.org/2000/svg"
   xmlns="http://www.w3.org/2000/svg"
   xmlns:sodipodi="http://sodipodi.sourceforge.net/DTD/sodipodi-0.dtd"
   xmlns:inkscape="http://www.inkscape.org/namespaces/inkscape"
   version="1.1"
   id="svg4871"
   sodipodi:docname="drawing.svg"
   inkscape:version="1.0.2-2 (e86c870879, 2021-01-15)"
   x="0px"
   y="0px"
   width="1700"
   height="847.04102"
   viewBox="0 0 1699.9999 847.041"
   enable-background="new 0 0 1588.217 847.041"
   xml:space="preserve"><metadata
   id="metadata86"><rdf:RDF><cc:Work
       rdf:about=""><dc:format>image/svg+xml</dc:format><dc:type
         rdf:resource="http://purl.org/dc/dcmitype/StillImage" /><dc:title></dc:title></cc:Work></rdf:RDF></metadata><defs
   id="defs84" />
<sodipodi:namedview
   width="1920px"
   fit-margin-left="0"
   fit-margin-top="0"
   showgrid="false"
   inkscape:cy="404.53033"
   inkscape:cx="538.01087"
   inkscape:zoom="0.44725269"
   borderopacity="1.0"
   bordercolor="#666666"
   pagecolor="#888888"
   id="base"
   fit-margin-bottom="0"
   fit-margin-right="0"
   inkscape:window-maximized="1"
   inkscape:window-y="-8"
   inkscape:window-x="-8"
   inkscape:current-layer="layer1"
   inkscape:document-units="px"
   inkscape:pageopacity="1"
   inkscape:window-height="1017"
   inkscape:window-width="1920"
   inkscape:pageshadow="2"
   inkscape:document-rotation="0">
	<inkscape:grid
   type="xygrid"
   id="grid952" /></sodipodi:namedview>
<g
   id="layer1"
   transform="translate(-1.3125275,-628.60194)"
   inkscape:label="Layer 1"
   inkscape:groupmode="layer">
	<path
   id="path4944"
   inkscape:connector-curvature="0"
   fill="#c4c1bc"
   d="m 200.344,636.466 v 0.188 C 89.682,641.008 1.312,732.08 1.312,843.81 c 0,114.509 92.835,207.312 207.344,207.312 42.683,0 82.374,-12.89 115.344,-35 5.808,-3.895 7.644,-5.033 13.406,-7.875 5.579,-2.751 12.507,-4.656 16.406,-4.656 h 129.25 3.875 129.281 c 3.899,0 10.797,1.905 16.375,4.656 5.763,2.842 7.63,3.98 13.438,7.875 32.971,22.111 72.63,35 115.312,35 114.509,0 207.344,-92.804 207.344,-207.312 0,-111.73 -88.369,-202.802 -199.031,-207.156 v -0.188 h -8.312 -274.406 -3.875 -274.407 z" />
	
		
	
		<path
   id="path5631"
   sodipodi:nodetypes="ccccaacaasaczssssscccaaasczccsscczczccccccccccccccc"
   inkscape:connector-curvature="0"
   fill="#c4c1bc"
   d="m 654.108,635.774 h 40.321 33.934 36.731 c 0,0 2.673,-0.039 4.009,0 3.775,0.108 7.547,0.343 11.312,0.649 3.465,0.282 6.797,0.624 10.372,1.092 3.629,0.519 6.62,0.792 9.903,1.364 2.632,0.459 5.245,1.03 7.842,1.659 2.665,0.646 5.323,1.409 7.936,2.171 2.152,0.628 4.251,1.29 6.362,1.978 3.686,1.202 7.936,2.66 11.008,3.757 1.704,0.634 3.04,1.143 4.948,1.921 1.909,0.778 4.38,1.809 6.489,2.775 2.186,1.001 4.39,2.044 6.512,3.108 1.998,1.002 4.023,2.045 5.965,3.089 0.938,0.504 1.808,0.96 2.719,1.442 0.643,0.34 1.285,0.698 1.928,1.046 0.335,0.182 1.006,0.544 1.006,0.544 l 0.659,-5.455 c -0.266,-0.814 -1.01,-1.405 -1.661,-1.732 -1.128,-0.705 -2.155,-1.318 -3.233,-1.976 -1.444,-0.88 -2.867,-1.796 -4.335,-2.637 -1.007,-0.577 -2.028,-1.128 -3.064,-1.648 -1.23,-0.617 -2.499,-1.156 -3.741,-1.747 -1.015,-0.482 -1.97,-0.972 -3.032,-1.467 -1.063,-0.495 -0.82,-0.464 -3.346,-1.5 -2.526,-1.036 -8.438,-3.128 -11.913,-4.441 -2.672,-0.945 -4.095,-1.388 -5.902,-2.019 -3.302,-1.059 -6.151,-1.697 -10.35,-2.801 -2.541,-0.668 -3.778,-1.186 -6.642,-1.681 -2.535,-0.438 -4.498,-0.888 -6.438,-1.165 l -2.412,-0.368 c 0,0 -1.773,-0.271 -3.099,-0.445 -1.326,-0.174 -3.509,-0.442 -4.854,-0.574 -1.516,-0.145 -2.58,-0.298 -5.993,-0.708 -3.413,-0.41 -7.891,-0.706 -11.783,-1.03 -1.974,-0.166 -6.242,-0.374 -6.242,-0.374 h -12.394 -16.497 -15.425 -15.03 -15.673 -14.832 -10.564 -2.719 l -3.478,0.313 -2.604,0.956 -1.747,1.335 -1.006,1.541 z" />
	
		<path
   id="path5631-7"
   sodipodi:nodetypes="ccccaacaasaczssssscccaaasczccsscczczccccccccccccccc"
   inkscape:connector-curvature="0"
   fill="#c4c1bc"
   d="m 315.905,635.774 h -40.32 -33.935 -36.731 c 0,0 -2.673,-0.039 -4.009,0 -3.775,0.108 -7.547,0.343 -11.311,0.649 -3.465,0.282 -6.797,0.624 -10.372,1.092 -3.629,0.519 -6.621,0.792 -9.904,1.364 -2.632,0.459 -5.245,1.03 -7.841,1.659 -2.666,0.646 -5.324,1.409 -7.937,2.171 -2.152,0.628 -4.25,1.29 -6.361,1.978 -3.687,1.202 -7.936,2.66 -11.009,3.757 -1.704,0.634 -3.04,1.143 -4.948,1.921 -1.909,0.778 -4.379,1.809 -6.489,2.775 -2.185,1.001 -4.39,2.044 -6.511,3.108 -1.998,1.002 -4.023,2.045 -5.966,3.089 -0.938,0.504 -1.807,0.96 -2.718,1.442 -0.643,0.34 -1.285,0.698 -1.928,1.046 -0.335,0.182 -1.005,0.544 -1.005,0.544 l -0.659,-5.455 c 0.266,-0.814 1.01,-1.405 1.661,-1.732 1.128,-0.705 2.155,-1.318 3.234,-1.976 1.444,-0.88 2.867,-1.796 4.334,-2.637 1.007,-0.577 2.028,-1.128 3.065,-1.648 1.23,-0.617 2.498,-1.156 3.741,-1.747 1.014,-0.482 1.97,-0.972 3.032,-1.467 1.063,-0.495 0.82,-0.464 3.346,-1.5 2.526,-1.036 8.438,-3.128 11.912,-4.441 2.673,-0.945 4.096,-1.388 5.903,-2.019 3.302,-1.059 6.151,-1.697 10.35,-2.801 2.541,-0.668 3.778,-1.186 6.642,-1.681 2.536,-0.438 4.499,-0.888 6.438,-1.165 l 2.413,-0.368 c 0,0 1.773,-0.271 3.098,-0.445 1.325,-0.173 3.509,-0.442 4.854,-0.574 1.516,-0.145 2.581,-0.298 5.993,-0.708 3.413,-0.41 7.891,-0.706 11.783,-1.03 1.974,-0.166 6.243,-0.374 6.243,-0.374 h 12.393 16.497 15.425 15.03 15.672 14.833 10.563 2.72 l 3.477,0.313 2.604,0.956 1.747,1.335 1.005,1.541 z" />
	
		
	
		<path
   id="rect4752-7"
   inkscape:connector-curvature="0"
   fill="#485053"
   stroke="#1a1c1b"
   stroke-width="3"
   stroke-linejoin="bevel"
   d="m 190.026,762.879 c -4.56,0 -8.219,3.658 -8.219,8.219 v 47.156 h -47.156 c -4.56,0 -8.25,3.69 -8.25,8.25 v 34.594 c 0,4.56 3.69,8.218 8.25,8.218 h 47.156 v 47.157 c 0,4.56 3.659,8.25 8.219,8.25 h 34.625 c 4.561,0 8.219,-3.69 8.219,-8.25 v -47.157 h 47.156 c 4.561,0 8.25,-3.658 8.25,-8.218 v -34.594 c 0,-4.56 -3.689,-8.25 -8.25,-8.25 H 232.87 v -47.156 c 0,-4.561 -3.658,-8.219 -8.219,-8.219 z" />
	
		<path
   id="path6000"
   inkscape:transform-center-y="2.3103264"
   inkscape:transform-center-x="-5.1055901"
   inkscape:connector-curvature="0"
   fill="#485053"
   stroke="#1a1c1b"
   d="m 247.15,860.296 0.031,-32.992 32.595,16.52 z" />
	
		<path
   id="path6000-8"
   inkscape:transform-center-y="2.3103264"
   inkscape:transform-center-x="5.1055901"
   inkscape:connector-curvature="0"
   fill="#485053"
   stroke="#1a1c1b"
   d="m 167.527,860.296 -0.031,-32.992 -32.596,16.52 z" />
	
		<path
   id="path6000-5"
   inkscape:transform-center-y="-5.1055936"
   inkscape:transform-center-x="-2.3103301"
   inkscape:connector-curvature="0"
   fill="#485053"
   stroke="#1a1c1b"
   d="m 223.834,804.005 -32.992,-0.031 16.52,-32.595 z" />
	
		<path
   id="path6000-5-9"
   inkscape:transform-center-y="5.1055936"
   inkscape:transform-center-x="-2.3103301"
   inkscape:connector-curvature="0"
   fill="#485053"
   stroke="#1a1c1b"
   d="m 223.834,883.596 -32.992,0.031 16.52,32.596 z" />
	
		<!--ABXY Buttons START-->
		<ellipse
   id="path6149"
   fill="#c0bce8"
   stroke="#1a1c1b"
   stroke-width="0.785098"
   cx="755.63354"
   cy="762.92303"
   rx="28.928452"
   ry="28.928564"
   style="display:inline" />
	
		<ellipse
   id="path6149-3"
   fill="#c0bce8"
   stroke="#1a1c1b"
   stroke-width="0.785098"
   cx="847.63354"
   cy="833.92303"
   rx="28.928452"
   ry="28.928564"
   style="display:inline" />
	
	
		<ellipse
   id="path6149-1"
   fill="#c0bce8"
   stroke="#1a1c1b"
   stroke-width="0.785098"
   cx="755.63354"
   cy="905.92303"
   rx="28.928452"
   ry="28.928564"
   style="display:inline" />
	
		<ellipse
   id="path6149-3-8"
   fill="#c0bce8"
   stroke="#1a1c1b"
   stroke-width="0.785098"
   cx="663.63354"
   cy="833.92303"
   rx="28.928452"
   ry="28.928564"
   style="display:inline" />
		<!--ABXY Buttons END-->
	<path
   id="rect6211-4"
   fill="#485053"
   d="m 463.97135,824.7635 50.88965,0.0207 c 8.4546,0.003 15.30622,6.85973 15.30289,15.31514 v 0 c -0.003,8.45541 -6.85973,15.30622 -15.31514,15.30289 l -50.88885,-0.0201 c -8.4554,-0.003 -15.30622,-6.85973 -15.30289,-15.31514 v 0 c 0.002,-8.45521 6.85973,-15.30622 15.31434,-15.30349 z" />
	<path
   id="rect6211-4-4"
   fill="#485053"
   d="m 358.6807,824.78147 50.88878,-0.0147 c 8.45474,-0.003 15.31101,6.84926 15.31342,15.30467 v 0 c 0.002,8.45401 -6.84925,15.31091 -15.30468,15.31336 l -50.88879,0.0147 c -8.45548,0.002 -15.311,-6.84925 -15.31341,-15.30466 v 0 c -0.002,-8.45461 6.84925,-15.31092 15.30468,-15.31337 z"
   style="stroke-width:0.99998" />
	<g
   id="text3017-7">
		<path
   id="path3143"
   inkscape:connector-curvature="0"
   fill="#747b81"
   stroke="#747b81"
   d="m 354.706,898.764 c -0.071,0.351 -0.24,0.637 -0.505,0.859 -0.258,0.222 -0.562,0.333 -0.913,0.333 h -4.232 c -0.351,0 -0.619,-0.111 -0.806,-0.333 -0.179,-0.223 -0.232,-0.509 -0.161,-0.859 l 0.859,-4.265 h 1.493 l -0.827,4.136 h 3.631 l 0.795,-4.007 -3.513,-5.607 c -0.25,-0.387 -0.329,-0.813 -0.236,-1.278 l 0.688,-3.405 c 0.072,-0.352 0.24,-0.638 0.505,-0.86 0.272,-0.222 0.584,-0.333 0.935,-0.333 h 4.232 c 0.351,0 0.612,0.111 0.784,0.333 0.179,0.222 0.233,0.508 0.161,0.86 l -0.784,3.91 h -1.493 l 0.752,-3.781 h -3.631 l -0.709,3.545 3.545,5.607 c 0.236,0.372 0.308,0.791 0.215,1.257 l -0.785,3.888" />
		<path
   id="path3145"
   inkscape:connector-curvature="0"
   fill="#747b81"
   stroke="#747b81"
   d="m 366.931,899.956 h -5.521 l 3.362,-16.812 h 5.457 l -0.269,1.322 h -3.964 l -1.246,6.273 h 3.609 l -0.269,1.343 h -3.609 l -1.311,6.553 h 4.028 l -0.267,1.321" />
		<path
   id="path3147"
   inkscape:connector-curvature="0"
   fill="#747b81"
   stroke="#747b81"
   d="m 378.94,899.956 h -5.371 l 3.362,-16.812 h 1.493 l -3.094,15.491 h 3.878 l -0.268,1.321" />
		<path
   id="path3149"
   inkscape:connector-curvature="0"
   fill="#747b81"
   stroke="#747b81"
   d="M 390.822,899.956 H 385.3 l 3.363,-16.812 h 5.457 l -0.269,1.322 h -3.964 l -1.246,6.273 h 3.609 l -0.269,1.343 h -3.609 l -1.311,6.553 h 4.028 l -0.267,1.321" />
		<path
   id="path3151"
   inkscape:connector-curvature="0"
   fill="#747b81"
   stroke="#747b81"
   d="m 404.432,898.764 c -0.072,0.351 -0.244,0.637 -0.516,0.859 -0.272,0.222 -0.584,0.333 -0.935,0.333 h -4.329 c -0.352,0 -0.616,-0.111 -0.795,-0.333 -0.18,-0.223 -0.233,-0.509 -0.161,-0.859 l 2.89,-14.427 c 0.071,-0.352 0.239,-0.638 0.505,-0.86 0.265,-0.222 0.572,-0.333 0.924,-0.333 h 4.329 c 0.351,0 0.619,0.111 0.806,0.333 0.186,0.222 0.243,0.508 0.172,0.86 l -0.784,3.91 h -1.504 l 0.752,-3.781 h -3.738 l -2.825,14.169 h 3.738 l 0.827,-4.136 h 1.504 l -0.86,4.265" />
		<path
   id="path3153"
   inkscape:connector-curvature="0"
   fill="#747b81"
   stroke="#747b81"
   d="m 420.008,884.466 h -2.6 l -3.094,15.49 h -1.493 l 3.094,-15.49 h -2.621 l 0.269,-1.322 h 6.714 l -0.269,1.322" />
	</g>
	<g
   id="text3017-7-2">
		<path
   id="path3132"
   inkscape:connector-curvature="0"
   fill="#747b81"
   stroke="#747b81"
   d="m 465.508,898.764 c -0.072,0.351 -0.24,0.637 -0.505,0.859 -0.258,0.222 -0.562,0.333 -0.913,0.333 h -4.232 c -0.352,0 -0.62,-0.111 -0.806,-0.333 -0.18,-0.223 -0.233,-0.509 -0.161,-0.859 l 0.859,-4.265 h 1.493 l -0.827,4.136 h 3.631 l 0.795,-4.007 -3.513,-5.607 c -0.251,-0.387 -0.33,-0.813 -0.236,-1.278 l 0.688,-3.405 c 0.071,-0.352 0.239,-0.638 0.505,-0.86 0.271,-0.222 0.583,-0.333 0.935,-0.333 h 4.232 c 0.351,0 0.612,0.111 0.784,0.333 0.179,0.222 0.232,0.508 0.161,0.86 l -0.784,3.91 h -1.493 l 0.752,-3.781 h -3.631 l -0.709,3.545 3.545,5.607 c 0.236,0.372 0.308,0.791 0.215,1.257 l -0.785,3.888" />
		<path
   id="path3134"
   inkscape:connector-curvature="0"
   fill="#747b81"
   stroke="#747b81"
   d="m 481.095,884.466 h -2.6 l -3.094,15.49 h -1.493 l 3.094,-15.49 h -2.621 l 0.269,-1.322 h 6.714 l -0.269,1.322" />
		<path
   id="path3136"
   inkscape:connector-curvature="0"
   fill="#747b81"
   stroke="#747b81"
   d="m 490.849,899.956 h -1.482 l 0.161,-3.738 h -3.341 l -1.343,3.738 h -1.439 l 0.011,-0.043 6.359,-16.812 h 1.472 l -0.398,16.855 m -1.257,-5.061 0.354,-9.109 -3.309,9.109 h 2.955" />
		<path
   id="path3138"
   inkscape:connector-curvature="0"
   fill="#747b81"
   stroke="#747b81"
   d="m 504.331,899.956 h -1.568 l -1.321,-9.002 0.258,-0.301 h 2.664 l 1.235,-6.188 h -3.835 l -3.094,15.49 h -1.493 l 3.362,-16.812 h 5.629 c 0.351,0 0.615,0.111 0.795,0.333 0.179,0.222 0.232,0.508 0.161,0.86 l -1.278,6.381 c -0.165,0.809 -0.792,1.214 -1.88,1.214 -0.107,0 -0.266,-0.005 -0.473,-0.011 -0.201,-0.015 -0.348,-0.021 -0.44,-0.021 0.429,2.678 0.855,5.364 1.278,8.057" />
		<path
   id="path3140"
   inkscape:connector-curvature="0"
   fill="#747b81"
   stroke="#747b81"
   d="m 519.767,884.466 h -2.6 l -3.094,15.49 h -1.493 l 3.094,-15.49 h -2.621 l 0.269,-1.322 h 6.714 l -0.269,1.322" />
	</g>
	
	<g
   id="text3017-7-6-55"
   transform="translate(0,-75.00006)">
		<path
   id="path3156"
   inkscape:connector-curvature="0"
   fill="#D3D4D6"
   stroke="#D3D4D6"
   d="m 618.155,871.326 -4.938,9.891 c -0.573,0.99 -1.401,2.641 -2.484,4.953 l -1.891,9.469 h -2.172 l 1.891,-9.469 c 0.011,-0.792 -0.047,-1.625 -0.172,-2.5 -0.198,-1.5 -0.302,-2.317 -0.312,-2.453 l -1,-9.891 c 0,-0.01 0.011,-0.057 0.031,-0.141 h 2.203 l 0.906,12.234 5.781,-12.234 h 2.188 c -0.01,0.073 -0.02,0.12 -0.031,0.141"
   style="fill:#747b81;fill-opacity:1;stroke:#747b81;stroke-opacity:1" />
	</g>
	<g
   id="text3017-7-6-5-3"
   transform="translate(-120.00049)">
		<path
   id="path3123"
   inkscape:connector-curvature="0"
   fill="#D3D4D6"
   stroke="#D3D4D6"
   d="m 824.729,741.162 h -2.234 l -1.25,-10.047 -5.281,10.047 h -2.172 c 0.011,-0.073 0.021,-0.115 0.031,-0.125 l 6.828,-12.391 c -1.167,-7.917 -1.739,-11.896 -1.719,-11.938 h 2.281 l 1.078,9.281 4.906,-9.281 h 2.172 c -0.011,0.073 -0.021,0.12 -0.031,0.141 l -6.391,11.672 c 1.22,8.386 1.814,12.599 1.782,12.641"
   style="fill:#747b81;fill-opacity:1;stroke:#747b81;stroke-opacity:1" />
	</g>
	<g
   id="text3017-7-6-2-3"
   transform="translate(105.00044)">
		<path
   id="path3129"
   inkscape:connector-curvature="0"
   fill="#D3D4D6"
   stroke="#D3D4D6"
   d="m 707.557,969.158 c -0.104,0.511 -0.349,0.928 -0.734,1.25 -0.386,0.323 -0.833,0.484 -1.344,0.484 h -8.062 l 4.891,-24.453 h 8 c 0.511,0 0.896,0.162 1.156,0.484 0.261,0.323 0.339,0.74 0.234,1.25 l -1.453,7.266 c -0.136,0.646 -0.536,1.188 -1.203,1.625 -0.646,0.344 -1.286,0.688 -1.922,1.031 l 1.609,1.188 c 0.469,0.334 0.636,0.854 0.5,1.562 l -1.672,8.313 m 0.437,-13.438 1.469,-7.359 h -5.375 l -1.766,8.828 h 3.203 l 2.469,-1.469 m -2.578,13.25 1.688,-8.453 -1.922,-1.438 h -3.234 l -1.969,9.891 h 5.437"
   style="fill:#747b81;fill-opacity:1;stroke:#747b81;stroke-opacity:1" />
	</g>
	<g
   id="text3017-7-6-4-9"
   transform="translate(-10.000059,74.99994)">
		<path
   id="path3126"
   inkscape:connector-curvature="0"
   fill="#D3D4D6"
   stroke="#D3D4D6"
   d="m 918.103,814.026 h -2.156 l 0.234,-5.438 h -4.859 l -1.953,5.438 h -2.094 l 0.016,-0.062 9.25,-24.453 h 2.141 l -0.579,24.515 m -1.829,-7.36 0.516,-13.25 -4.812,13.25 h 4.296"
   style="fill:#747b81;fill-opacity:1;stroke:#747b81;stroke-opacity:1" />
	</g>
	<g
   id="g3182"
   transform="translate(-64.514153,-47.7499)">
		<path
   id="path4944-2"
   inkscape:connector-curvature="0"
   fill="#FF0000"
   d="m 264.858,1108.737 v 0.188 c -110.662,4.354 -199.031,95.426 -199.031,207.156 0,114.508 92.835,207.312 207.344,207.312 42.683,0 82.374,-12.89 115.344,-35 5.808,-3.895 7.644,-5.033 13.406,-7.875 5.579,-2.751 12.507,-4.656 16.406,-4.656 h 129.25 3.875 129.281 c 3.899,0 10.797,1.905 16.375,4.656 5.763,2.842 7.63,3.98 13.438,7.875 32.971,22.11 72.63,35 115.312,35 114.509,0 207.344,-92.805 207.344,-207.312 0,-111.73 -88.369,-202.802 -199.031,-207.156 v -0.188 H 825.859 551.452 547.577 273.17 Z"
   style="fill:#4b367c;fill-opacity:1" />
		
			<path
   id="path5631-77"
   sodipodi:nodetypes="ccccaacaasaczssssscccaaasczccsscczczccccccccccccccc"
   inkscape:connector-curvature="0"
   fill="#FF0000"
   d="m 718.623,1108.044 h 40.321 33.934 36.731 c 0,0 2.673,-0.038 4.009,0 3.775,0.108 7.547,0.344 11.312,0.649 3.465,0.282 6.797,0.624 10.372,1.092 3.629,0.519 6.62,0.792 9.903,1.364 2.632,0.459 5.245,1.029 7.842,1.659 2.665,0.646 5.323,1.408 7.936,2.171 2.152,0.628 4.251,1.289 6.362,1.978 3.686,1.201 7.936,2.66 11.008,3.757 1.704,0.635 3.04,1.144 4.948,1.922 1.909,0.778 4.38,1.809 6.489,2.775 2.186,1.001 4.39,2.044 6.512,3.108 1.998,1.002 4.023,2.044 5.965,3.088 0.938,0.504 1.808,0.961 2.719,1.442 0.643,0.34 1.285,0.698 1.928,1.047 0.335,0.181 1.006,0.544 1.006,0.544 l 0.659,-5.455 c -0.266,-0.814 -1.01,-1.405 -1.661,-1.732 -1.128,-0.705 -2.155,-1.318 -3.233,-1.976 -1.444,-0.881 -2.867,-1.797 -4.335,-2.637 -1.007,-0.577 -2.028,-1.128 -3.064,-1.648 -1.23,-0.617 -2.499,-1.156 -3.741,-1.747 -1.015,-0.481 -1.97,-0.972 -3.032,-1.467 -1.063,-0.495 -0.82,-0.464 -3.346,-1.5 -2.526,-1.035 -8.438,-3.128 -11.913,-4.44 -2.672,-0.945 -4.095,-1.388 -5.902,-2.02 -3.302,-1.059 -6.151,-1.697 -10.35,-2.802 -2.541,-0.668 -3.778,-1.186 -6.642,-1.681 -2.535,-0.438 -4.498,-0.888 -6.438,-1.165 l -2.412,-0.367 c 0,0 -1.773,-0.271 -3.099,-0.445 -1.326,-0.174 -3.509,-0.442 -4.854,-0.574 -1.516,-0.145 -2.58,-0.298 -5.993,-0.708 -3.413,-0.41 -7.891,-0.706 -11.783,-1.03 -1.974,-0.166 -6.242,-0.374 -6.242,-0.374 h -12.394 -16.497 -15.425 -15.03 -15.673 -14.832 -10.564 -2.719 l -3.478,0.313 -2.604,0.956 -1.747,1.335 -1.006,1.541 z"
   style="fill:#4b367c;fill-opacity:1" />
		
			<path
   id="path5631-7-3"
   sodipodi:nodetypes="ccccaacaasaczssssscccaaasczccsscczczccccccccccccccc"
   inkscape:connector-curvature="0"
   fill="#FF0000"
   d="m 380.419,1108.044 h -40.32 -33.935 -36.731 c 0,0 -2.673,-0.038 -4.009,0 -3.775,0.108 -7.547,0.344 -11.311,0.649 -3.465,0.282 -6.797,0.624 -10.372,1.092 -3.629,0.519 -6.621,0.792 -9.904,1.364 -2.632,0.459 -5.245,1.029 -7.841,1.659 -2.666,0.646 -5.324,1.408 -7.937,2.171 -2.152,0.628 -4.25,1.289 -6.361,1.978 -3.687,1.201 -7.936,2.66 -11.009,3.757 -1.704,0.635 -3.04,1.144 -4.948,1.922 -1.909,0.778 -4.379,1.809 -6.489,2.775 -2.185,1.001 -4.39,2.044 -6.511,3.108 -1.998,1.002 -4.023,2.044 -5.966,3.088 -0.938,0.504 -1.807,0.961 -2.718,1.442 -0.643,0.34 -1.285,0.698 -1.928,1.047 -0.335,0.181 -1.005,0.544 -1.005,0.544 l -0.659,-5.455 c 0.266,-0.814 1.01,-1.405 1.661,-1.732 1.128,-0.705 2.155,-1.318 3.234,-1.976 1.444,-0.881 2.867,-1.797 4.334,-2.637 1.007,-0.577 2.028,-1.128 3.065,-1.648 1.23,-0.617 2.499,-1.156 3.741,-1.747 1.014,-0.481 1.97,-0.972 3.032,-1.467 1.063,-0.495 0.82,-0.464 3.346,-1.5 2.526,-1.035 8.438,-3.128 11.913,-4.44 2.672,-0.945 4.095,-1.388 5.903,-2.02 3.301,-1.059 6.151,-1.697 10.35,-2.802 2.541,-0.668 3.778,-1.186 6.642,-1.681 2.535,-0.438 4.498,-0.888 6.437,-1.165 l 2.413,-0.367 c 0,0 1.773,-0.271 3.098,-0.445 1.325,-0.174 3.509,-0.442 4.854,-0.574 1.516,-0.145 2.581,-0.298 5.994,-0.708 3.413,-0.41 7.891,-0.706 11.783,-1.03 1.974,-0.166 6.243,-0.374 6.243,-0.374 h 12.393 16.497 15.425 15.03 15.672 14.833 10.564 2.719 l 3.477,0.313 2.604,0.956 1.747,1.335 1.005,1.541 z"
   style="fill:#4b367c;fill-opacity:1" />
	</g>
	<text
   transform="translate(197.0527,1290.5912)"
   fill="#ffffff"
   font-family="Arial-BoldMT"
   font-size="72px"
   id="text65"
   style="font-size:73.3333px;line-height:0%"><tspan
     style="font-style:normal;font-variant:normal;font-weight:normal;font-stretch:normal;font-size:73.3333px;font-family:'Futura Md BT';-inkscape-font-specification:'Futura Md BT'"
     id="tspan883">DISCONNECTED</tspan></text>
	
		<path
   id="path5631-7-4"
   sodipodi:nodetypes="ccccaacaasaczssssscccaaasczccsscczczccccccccccccccc"
   inkscape:connector-curvature="0"
   fill="#ffffff"
   d="m 1211.2675,635.77494 h -40.32 -33.935 -36.73 c 0,0 -2.674,-0.039 -4.01,0 -3.774,0.108 -7.547,0.343 -11.311,0.649 -3.465,0.282 -6.797,0.624 -10.372,1.092 -3.63,0.519 -6.621,0.792 -9.903,1.364 -2.632,0.459 -5.245,1.03 -7.842,1.659 -2.666,0.646 -5.324,1.409 -7.937,2.171 -2.151,0.628 -4.25,1.29 -6.361,1.978 -3.687,1.202 -7.936,2.66 -11.009,3.757 -1.703,0.634 -3.04,1.143 -4.948,1.921 -1.908,0.778 -4.379,1.809 -6.489,2.775 -2.185,1.001 -4.39,2.044 -6.511,3.108 -1.998,1.002 -4.023,2.045 -5.966,3.089 -0.938,0.504 -1.807,0.96 -2.718,1.442 -0.644,0.34 -1.285,0.698 -1.929,1.046 -0.335,0.182 -1.005,0.544 -1.005,0.544 l -0.659,-5.455 c 0.266,-0.814 1.01,-1.405 1.66,-1.732 1.128,-0.705 2.155,-1.318 3.234,-1.976 1.443,-0.88 2.866,-1.796 4.334,-2.637 1.007,-0.577 2.028,-1.128 3.065,-1.648 1.23,-0.617 2.498,-1.156 3.741,-1.747 1.014,-0.482 1.97,-0.972 3.032,-1.467 1.062,-0.495 0.819,-0.464 3.346,-1.5 2.525,-1.036 8.438,-3.128 11.912,-4.441 2.673,-0.945 4.096,-1.388 5.903,-2.019 3.301,-1.059 6.15,-1.697 10.35,-2.801 2.54,-0.668 3.777,-1.186 6.642,-1.681 2.535,-0.438 4.498,-0.888 6.437,-1.165 l 2.413,-0.368 c 0,0 1.773,-0.271 3.099,-0.445 1.324,-0.173 3.508,-0.442 4.854,-0.574 1.517,-0.145 2.581,-0.298 5.994,-0.708 3.413,-0.41 7.891,-0.706 11.783,-1.03 1.974,-0.166 6.242,-0.374 6.242,-0.374 h 12.394 16.496 15.426 15.03 15.673 14.832 10.563 2.72 l 3.478,0.313 2.604,0.956 1.747,1.335 1.005,1.541 z" />
	<path
   id="rect6211-4-4-2"
   fill="#ffffff"
   d="m 1266.6442,628.60196 50.8888,0.0751 c 8.4554,0.0125 15.2988,6.87628 15.2871,15.33228 v 0 c -0.013,8.4548 -6.8763,15.2988 -15.3317,15.28632 l -50.8887,-0.0751 c -8.4554,-0.0125 -15.2988,-6.87627 -15.2872,-15.33228 v 0 c 0.013,-8.45479 6.8777,-15.29899 15.3317,-15.28632 z" />
	
		<circle
   id="path6149-4"
   opacity="0.99"
   fill="#ffffff"
   stroke="#ffffff"
   stroke-width="0.7851"
   enable-background="new    "
   cx="1530.6337"
   cy="657.92303"
   r="28.928564"
   style="display:inline" />
	
		<path
   id="path6000-5-0"
   inkscape:transform-center-y="-5.1055936"
   inkscape:transform-center-x="-2.3103301"
   inkscape:connector-curvature="0"
   fill="#ffffff"
   stroke="#ffffff"
   d="m 1435.1181,662.33564 -32.992,-0.031 16.52,-32.595 z" />
	
</g>
<circle
   fill="#c4c1bc"
   cx="620.54102"
   cy="346.29001"
   r="66.5"
   id="circle75" />
<circle
   fill="#485053"
   cx="620.54102"
   cy="345.29001"
   r="44.585999"
   id="circle77" />
<circle
   fill="#c4c1bc"
   cx="332.005"
   cy="346.552"
   r="66.5"
   id="circle79" />
<circle
   fill="#485053"
   cx="331.005"
   cy="345.552"
   r="44.585999"
   id="circle81" />
</svg>
