<?xml version="1.0" encoding="utf-8"?>
<!-- Generator: Adobe Illustrator 16.0.0, SVG Export Plug-In . SVG Version: 6.00 Build 0)  -->
<!DOCTYPE svg PUBLIC "-//W3C//DTD SVG 1.1//EN" "http://www.w3.org/Graphics/SVG/1.1/DTD/svg11.dtd">
<svg version="1.1"
	 id="svg4871" xmlns:dc="http://purl.org/dc/elements/1.1/" xmlns:cc="http://creativecommons.org/ns#" xmlns:rdf="http://www.w3.org/1999/02/22-rdf-syntax-ns#" xmlns:svg="http://www.w3.org/2000/svg" xmlns:sodipodi="http://sodipodi.sourceforge.net/DTD/sodipodi-0.dtd" xmlns:inkscape="http://www.inkscape.org/namespaces/inkscape" sodipodi:docname="drawing.svg" inkscape:version="0.48.4 r9939"
	 xmlns="http://www.w3.org/2000/svg" xmlns:xlink="http://www.w3.org/1999/xlink" x="0px" y="0px" width="1588.217px"
	 height="847.041px" viewBox="0 0 1588.217 847.041" enable-background="new 0 0 1588.217 847.041" xml:space="preserve">
<sodipodi:namedview  width="1920px" fit-margin-left="0" fit-margin-top="0" showgrid="false" inkscape:cy="684.67522" inkscape:cx="573.50824" inkscape:zoom="0.44725269" borderopacity="1.0" bordercolor="#666666" pagecolor="#ffffff" id="base" fit-margin-bottom="0" fit-margin-right="0" inkscape:window-maximized="0" inkscape:window-y="19" inkscape:window-x="0" inkscape:current-layer="layer1" inkscape:document-units="px" inkscape:pageopacity="0.0" inkscape:window-height="747" inkscape:window-width="1358" inkscape:pageshadow="2">
	</sodipodi:namedview>
<g id="layer1" transform="translate(-1.3125275,-628.60194)" inkscape:label="Layer 1" inkscape:groupmode="layer">
	<path id="path4944" inkscape:connector-curvature="0" fill="#C4C1BC" d="M200.344,636.466v0.188
		C89.682,641.008,1.312,732.08,1.312,843.81c0,114.509,92.835,207.312,207.344,207.312c42.683,0,82.374-12.89,115.344-35
		c5.808-3.895,7.644-5.033,13.406-7.875c5.579-2.751,12.507-4.656,16.406-4.656h129.25h3.875h129.281
		c3.899,0,10.797,1.905,16.375,4.656c5.763,2.842,7.63,3.98,13.438,7.875c32.971,22.111,72.63,35,115.312,35
		c114.509,0,207.344-92.804,207.344-207.312c0-111.73-88.369-202.802-199.031-207.156v-0.188h-8.312H486.938h-3.875H208.656H200.344
		L200.344,636.466z"/>
	
		<path id="path5603" sodipodi:ry="144.68755" sodipodi:rx="144.68755" sodipodi:cy="545.25275" sodipodi:cx="1241.7771" sodipodi:type="arc" fill="#747B81" d="
		M944.48,843.801c0,100.408-81.396,181.805-181.805,181.805s-181.805-81.397-181.805-181.805
		c0-100.408,81.396-181.805,181.805-181.805S944.48,743.392,944.48,843.801z"/>
	
		<path id="path5631" sodipodi:nodetypes="ccccaacaasaczssssscccaaasczccsscczczccccccccccccccc" inkscape:connector-curvature="0" fill="#C4C1BC" d="
		M654.108,635.774h40.321h33.934h36.731c0,0,2.673-0.039,4.009,0c3.775,0.108,7.547,0.343,11.312,0.649
		c3.465,0.282,6.797,0.624,10.372,1.092c3.629,0.519,6.62,0.792,9.903,1.364c2.632,0.459,5.245,1.03,7.842,1.659
		c2.665,0.646,5.323,1.409,7.936,2.171c2.152,0.628,4.251,1.29,6.362,1.978c3.686,1.202,7.936,2.66,11.008,3.757
		c1.704,0.634,3.04,1.143,4.948,1.921c1.909,0.778,4.38,1.809,6.489,2.775c2.186,1.001,4.39,2.044,6.512,3.108
		c1.998,1.002,4.023,2.045,5.965,3.089c0.938,0.504,1.808,0.96,2.719,1.442c0.643,0.34,1.285,0.698,1.928,1.046
		c0.335,0.182,1.006,0.544,1.006,0.544l0.659-5.455c-0.266-0.814-1.01-1.405-1.661-1.732c-1.128-0.705-2.155-1.318-3.233-1.976
		c-1.444-0.88-2.867-1.796-4.335-2.637c-1.007-0.577-2.028-1.128-3.064-1.648c-1.23-0.617-2.499-1.156-3.741-1.747
		c-1.015-0.482-1.97-0.972-3.032-1.467c-1.063-0.495-0.82-0.464-3.346-1.5c-2.526-1.036-8.438-3.128-11.913-4.441
		c-2.672-0.945-4.095-1.388-5.902-2.019c-3.302-1.059-6.151-1.697-10.35-2.801c-2.541-0.668-3.778-1.186-6.642-1.681
		c-2.535-0.438-4.498-0.888-6.438-1.165l-2.412-0.368c0,0-1.773-0.271-3.099-0.445s-3.509-0.442-4.854-0.574
		c-1.516-0.145-2.58-0.298-5.993-0.708s-7.891-0.706-11.783-1.03c-1.974-0.166-6.242-0.374-6.242-0.374h-12.394h-16.497h-15.425
		h-15.03h-15.673h-14.832h-10.564h-2.719l-3.478,0.313l-2.604,0.956l-1.747,1.335l-1.006,1.541L654.108,635.774z"/>
	
		<path id="path5631-7" sodipodi:nodetypes="ccccaacaasaczssssscccaaasczccsscczczccccccccccccccc" inkscape:connector-curvature="0" fill="#C4C1BC" d="
		M315.905,635.774h-40.32H241.65h-36.731c0,0-2.673-0.039-4.009,0c-3.775,0.108-7.547,0.343-11.311,0.649
		c-3.465,0.282-6.797,0.624-10.372,1.092c-3.629,0.519-6.621,0.792-9.904,1.364c-2.632,0.459-5.245,1.03-7.841,1.659
		c-2.666,0.646-5.324,1.409-7.937,2.171c-2.152,0.628-4.25,1.29-6.361,1.978c-3.687,1.202-7.936,2.66-11.009,3.757
		c-1.704,0.634-3.04,1.143-4.948,1.921c-1.909,0.778-4.379,1.809-6.489,2.775c-2.185,1.001-4.39,2.044-6.511,3.108
		c-1.998,1.002-4.023,2.045-5.966,3.089c-0.938,0.504-1.807,0.96-2.718,1.442c-0.643,0.34-1.285,0.698-1.928,1.046
		c-0.335,0.182-1.005,0.544-1.005,0.544l-0.659-5.455c0.266-0.814,1.01-1.405,1.661-1.732c1.128-0.705,2.155-1.318,3.234-1.976
		c1.444-0.88,2.867-1.796,4.334-2.637c1.007-0.577,2.028-1.128,3.065-1.648c1.23-0.617,2.498-1.156,3.741-1.747
		c1.014-0.482,1.97-0.972,3.032-1.467c1.063-0.495,0.82-0.464,3.346-1.5s8.438-3.128,11.912-4.441
		c2.673-0.945,4.096-1.388,5.903-2.019c3.302-1.059,6.151-1.697,10.35-2.801c2.541-0.668,3.778-1.186,6.642-1.681
		c2.536-0.438,4.499-0.888,6.438-1.165l2.413-0.368c0,0,1.773-0.271,3.098-0.445c1.325-0.173,3.509-0.442,4.854-0.574
		c1.516-0.145,2.581-0.298,5.993-0.708c3.413-0.41,7.891-0.706,11.783-1.03c1.974-0.166,6.243-0.374,6.243-0.374h12.393h16.497
		h15.425h15.03h15.672h14.833h10.563h2.72l3.477,0.313l2.604,0.956l1.747,1.335l1.005,1.541L315.905,635.774z"/>
	
		<path id="path5695" sodipodi:ry="102.92207" sodipodi:rx="102.92207" sodipodi:cy="464.70502" sodipodi:cx="578.75018" sodipodi:type="arc" fill="none" stroke="#747B81" d="
		M322.194,843.801c0,63.433-51.422,114.855-114.855,114.855c-63.433,0-114.855-51.422-114.855-114.855
		c0-63.433,51.422-114.855,114.855-114.855C270.771,728.945,322.194,780.368,322.194,843.801z"/>
	
		<path id="rect4752-7" inkscape:connector-curvature="0" fill="#485053" stroke="#1A1C1B" stroke-width="3" stroke-linejoin="bevel" d="
		M190.026,762.879c-4.56,0-8.219,3.658-8.219,8.219v47.156h-47.156c-4.56,0-8.25,3.69-8.25,8.25v34.594
		c0,4.56,3.69,8.218,8.25,8.218h47.156v47.157c0,4.56,3.659,8.25,8.219,8.25h34.625c4.561,0,8.219-3.69,8.219-8.25v-47.157h47.156
		c4.561,0,8.25-3.658,8.25-8.218v-34.594c0-4.56-3.689-8.25-8.25-8.25H232.87v-47.156c0-4.561-3.658-8.219-8.219-8.219H190.026z"/>
	
		<path id="path6000" inkscape:transform-center-y="2.3103264" inkscape:transform-center-x="-5.1055901" inkscape:connector-curvature="0" fill="#485053" stroke="#1A1C1B" d="
		M247.15,860.296l0.031-32.992l32.595,16.52L247.15,860.296z"/>
	
		<path id="path6000-8" inkscape:transform-center-y="2.3103264" inkscape:transform-center-x="5.1055901" inkscape:connector-curvature="0" fill="#485053" stroke="#1A1C1B" d="
		M167.527,860.296l-0.031-32.992l-32.596,16.52L167.527,860.296z"/>
	
		<path id="path6000-5" inkscape:transform-center-y="-5.1055936" inkscape:transform-center-x="-2.3103301" inkscape:connector-curvature="0" fill="#485053" stroke="#1A1C1B" d="
		M223.834,804.005l-32.992-0.031l16.52-32.595L223.834,804.005z"/>
	
		<path id="path6000-5-9" inkscape:transform-center-y="5.1055936" inkscape:transform-center-x="-2.3103301" inkscape:connector-curvature="0" fill="#485053" stroke="#1A1C1B" d="
		M223.834,883.596l-32.992,0.031l16.52,32.596L223.834,883.596z"/>
	<path id="rect6093-8" fill="#C4C1BC" d="M642.241,806.095l92.394-71.877c20.372-15.849,49.734-12.182,65.583,8.19l0,0
		c15.849,20.372,12.182,49.734-8.19,65.583l-92.394,71.877c-20.372,15.849-49.734,12.182-65.583-8.19l0,0
		C618.202,851.306,621.87,821.943,642.241,806.095z"/>
	
		<path id="path6149" sodipodi:ry="28.928564" sodipodi:rx="28.928564" sodipodi:cy="468.91046" sodipodi:cx="1216.689" sodipodi:type="arc" fill="#014DA3" stroke="#1A1C1B" stroke-width="0.7851" d="
		M800.108,771.174c0,20.35-16.497,36.847-36.847,36.847c-20.351,0-36.848-16.497-36.848-36.847c0-20.35,16.497-36.847,36.848-36.847
		C783.611,734.327,800.108,750.824,800.108,771.174z"/>
	
		<path id="path6149-3" sodipodi:ry="28.928564" sodipodi:rx="28.928564" sodipodi:cy="468.91046" sodipodi:cx="1216.689" sodipodi:type="arc" fill="#00926D" stroke="#1A1C1B" stroke-width="0.7851" d="
		M707.855,842.911c0,20.35-16.497,36.847-36.848,36.847c-20.35,0-36.847-16.497-36.847-36.847c0-20.35,16.497-36.847,36.847-36.847
		C691.358,806.064,707.855,822.561,707.855,842.911z"/>
	<path id="rect6093-8-7" fill="#C4C1BC" d="M733.975,876.837l92.394-71.877c20.372-15.849,49.734-12.181,65.583,8.19v0
		c15.849,20.372,12.182,49.734-8.19,65.583l-92.394,71.877c-20.372,15.849-49.734,12.182-65.583-8.19l0,0
		C709.936,922.048,713.603,892.686,733.975,876.837z"/>
	
		<path id="path6149-1" sodipodi:ry="28.928564" sodipodi:rx="28.928564" sodipodi:cy="468.91046" sodipodi:cx="1216.689" sodipodi:type="arc" fill="#E03C4B" stroke="#1A1C1B" stroke-width="0.7851" d="
		M891.842,841.917c0,20.35-16.497,36.847-36.848,36.847c-20.35,0-36.847-16.497-36.847-36.847s16.497-36.847,36.847-36.847
		C875.345,805.07,891.842,821.567,891.842,841.917z"/>
	
		<path id="path6149-3-8" sodipodi:ry="28.928564" sodipodi:rx="28.928564" sodipodi:cy="468.91046" sodipodi:cx="1216.689" sodipodi:type="arc" fill="#FFBC54" stroke="#1A1C1B" stroke-width="0.7851" d="
		M799.588,913.654c0,20.35-16.496,36.847-36.847,36.847c-20.35,0-36.847-16.497-36.847-36.847s16.497-36.847,36.847-36.847
		C783.092,876.807,799.588,893.304,799.588,913.654z"/>
	<path id="rect6211-4" fill="#485053" d="M459.873,843.145l40.668-30.592c6.756-5.083,16.354-3.726,21.437,3.031l0,0
		c5.083,6.757,3.726,16.354-3.031,21.437l-40.667,30.592c-6.757,5.083-16.354,3.726-21.437-3.031l0,0
		C451.759,857.826,453.117,848.228,459.873,843.145z"/>
	<path id="rect6211-4-4" fill="#485053" d="M354.593,843.145l40.667-30.592c6.756-5.083,16.354-3.726,21.437,3.031l0,0
		c5.082,6.756,3.726,16.354-3.031,21.437l-40.667,30.592c-6.757,5.083-16.354,3.726-21.437-3.031l0,0
		C346.479,857.826,347.836,848.228,354.593,843.145z"/>
	<g id="text3017-7">
		<path id="path3143" inkscape:connector-curvature="0" fill="#747B81" stroke="#747B81" d="M354.706,898.764
			c-0.071,0.351-0.24,0.637-0.505,0.859c-0.258,0.222-0.562,0.333-0.913,0.333h-4.232c-0.351,0-0.619-0.111-0.806-0.333
			c-0.179-0.223-0.232-0.509-0.161-0.859l0.859-4.265h1.493l-0.827,4.136h3.631l0.795-4.007l-3.513-5.607
			c-0.25-0.387-0.329-0.813-0.236-1.278l0.688-3.405c0.072-0.352,0.24-0.638,0.505-0.86c0.272-0.222,0.584-0.333,0.935-0.333h4.232
			c0.351,0,0.612,0.111,0.784,0.333c0.179,0.222,0.233,0.508,0.161,0.86l-0.784,3.91h-1.493l0.752-3.781h-3.631l-0.709,3.545
			l3.545,5.607c0.236,0.372,0.308,0.791,0.215,1.257L354.706,898.764"/>
		<path id="path3145" inkscape:connector-curvature="0" fill="#747B81" stroke="#747B81" d="M366.931,899.956h-5.521l3.362-16.812
			h5.457l-0.269,1.322h-3.964l-1.246,6.273h3.609l-0.269,1.343h-3.609l-1.311,6.553h4.028L366.931,899.956"/>
		<path id="path3147" inkscape:connector-curvature="0" fill="#747B81" stroke="#747B81" d="M378.94,899.956h-5.371l3.362-16.812
			h1.493l-3.094,15.491h3.878L378.94,899.956"/>
		<path id="path3149" inkscape:connector-curvature="0" fill="#747B81" stroke="#747B81" d="M390.822,899.956H385.3l3.363-16.812
			h5.457l-0.269,1.322h-3.964l-1.246,6.273h3.609l-0.269,1.343h-3.609l-1.311,6.553h4.028L390.822,899.956"/>
		<path id="path3151" inkscape:connector-curvature="0" fill="#747B81" stroke="#747B81" d="M404.432,898.764
			c-0.072,0.351-0.244,0.637-0.516,0.859c-0.272,0.222-0.584,0.333-0.935,0.333h-4.329c-0.352,0-0.616-0.111-0.795-0.333
			c-0.18-0.223-0.233-0.509-0.161-0.859l2.89-14.427c0.071-0.352,0.239-0.638,0.505-0.86c0.265-0.222,0.572-0.333,0.924-0.333h4.329
			c0.351,0,0.619,0.111,0.806,0.333c0.186,0.222,0.243,0.508,0.172,0.86l-0.784,3.91h-1.504l0.752-3.781h-3.738l-2.825,14.169h3.738
			l0.827-4.136h1.504L404.432,898.764"/>
		<path id="path3153" inkscape:connector-curvature="0" fill="#747B81" stroke="#747B81" d="M420.008,884.466h-2.6l-3.094,15.49
			h-1.493l3.094-15.49h-2.621l0.269-1.322h6.714L420.008,884.466"/>
	</g>
	<g id="text3017-7-2">
		<path id="path3132" inkscape:connector-curvature="0" fill="#747B81" stroke="#747B81" d="M465.508,898.764
			c-0.072,0.351-0.24,0.637-0.505,0.859c-0.258,0.222-0.562,0.333-0.913,0.333h-4.232c-0.352,0-0.62-0.111-0.806-0.333
			c-0.18-0.223-0.233-0.509-0.161-0.859l0.859-4.265h1.493l-0.827,4.136h3.631l0.795-4.007l-3.513-5.607
			c-0.251-0.387-0.33-0.813-0.236-1.278l0.688-3.405c0.071-0.352,0.239-0.638,0.505-0.86c0.271-0.222,0.583-0.333,0.935-0.333h4.232
			c0.351,0,0.612,0.111,0.784,0.333c0.179,0.222,0.232,0.508,0.161,0.86l-0.784,3.91h-1.493l0.752-3.781h-3.631l-0.709,3.545
			l3.545,5.607c0.236,0.372,0.308,0.791,0.215,1.257L465.508,898.764"/>
		<path id="path3134" inkscape:connector-curvature="0" fill="#747B81" stroke="#747B81" d="M481.095,884.466h-2.6l-3.094,15.49
			h-1.493l3.094-15.49h-2.621l0.269-1.322h6.714L481.095,884.466"/>
		<path id="path3136" inkscape:connector-curvature="0" fill="#747B81" stroke="#747B81" d="M490.849,899.956h-1.482l0.161-3.738
			h-3.341l-1.343,3.738h-1.439l0.011-0.043l6.359-16.812h1.472L490.849,899.956 M489.592,894.895l0.354-9.109l-3.309,9.109H489.592"
			/>
		<path id="path3138" inkscape:connector-curvature="0" fill="#747B81" stroke="#747B81" d="M504.331,899.956h-1.568l-1.321-9.002
			l0.258-0.301h2.664l1.235-6.188h-3.835l-3.094,15.49h-1.493l3.362-16.812h5.629c0.351,0,0.615,0.111,0.795,0.333
			c0.179,0.222,0.232,0.508,0.161,0.86l-1.278,6.381c-0.165,0.809-0.792,1.214-1.88,1.214c-0.107,0-0.266-0.005-0.473-0.011
			c-0.201-0.015-0.348-0.021-0.44-0.021C503.482,894.577,503.908,897.263,504.331,899.956"/>
		<path id="path3140" inkscape:connector-curvature="0" fill="#747B81" stroke="#747B81" d="M519.767,884.466h-2.6l-3.094,15.49
			h-1.493l3.094-15.49h-2.621l0.269-1.322h6.714L519.767,884.466"/>
	</g>
	<g id="g4412" transform="matrix(0.04254447,0,0,-0.04254447,277.66869,762.30998)">
		<path id="path3868" inkscape:connector-curvature="0" fill="#747B81" d="M258.676,1225.605
			c0,83.714,133.995,151.623,299.323,151.623c165.591,0,299.575-67.909,299.575-151.623c0-83.979-133.983-151.647-299.575-151.647
			C392.671,1073.958,258.676,1141.627,258.676,1225.605"/>
		<path id="path3870" inkscape:connector-curvature="0" fill="#747B81" d="M812.033,944.968
			c0,87.938,140.847,159.278,314.599,159.278c173.729,0,314.839-71.341,314.839-159.278c0-87.915-141.111-159.268-314.839-159.268
			C952.879,785.7,812.033,857.053,812.033,944.968"/>
		<path id="path3872" inkscape:connector-curvature="0" fill="#747B81" d="M941.023,1294.043
			c151.647,5.796,272.994,130.827,272.994,284.069c0,156.892-127.407,284.299-284.299,284.299
			c-155.859,0-282.474-125.307-284.322-280.89c3.684,0.252,7.379,0.252,11.316,0.252c156.903,0,284.31-127.143,284.31-284.299
			V1294.043"/>
		<path id="path3874" inkscape:connector-curvature="0" fill="#747B81" d="M1494.127,1013.152
			c147.676,5.796,265.626,127.419,265.626,276.679c0,152.955-123.735,276.942-276.69,276.942
			c-151.624,0-274.842-122.162-276.667-273.522c3.672,0.275,7.357,0.275,11.041,0.275c152.691,0,276.689-123.998,276.689-276.953
			V1013.152"/>
		<path id="path3876" inkscape:connector-curvature="0" fill="#747B81" d="M5781.704,992.368h279.582l19.511,122.139h-137.702
			l56.605,332.744h137.679l19.465,103.19h-137.679l60.3,305.394h137.679l19.465,122.14h-260.599L5781.704,992.368"/>
		<path id="path3878" inkscape:connector-curvature="0" fill="#747B81" d="M3279.768,992.368h279.582l19.465,122.139h-137.656
			l56.582,332.744h137.679l19.488,103.19h-137.679l60.278,305.394h137.679l19.465,122.14h-260.599L3279.768,992.368"/>
		<path id="path3880" inkscape:connector-curvature="0" fill="#747B81" d="M5535.313,992.368h142.155l155.583,863.467h74.762
			l19.213,122.14H5634.82l-23.414-122.14h77.378L5535.313,992.368"/>
		<path id="path3882" inkscape:connector-curvature="0" fill="#747B81" d="M6576.217,1977.975l-96.362-514.656l-64.478,514.656
			h-124.274l-187.146-985.606h143.211l115.276,571.524l45.564-571.524h124.251l187.168,985.606H6576.217"/>
		<path id="path3884" inkscape:connector-curvature="0" fill="#747B81" d="M4756.616,1977.975l-96.361-514.656l-64.479,514.656
			h-124.274l-187.168-985.606h143.211l115.322,571.524l45.541-571.524h124.251l187.168,985.606H4756.616"/>
		<path id="path3886" inkscape:connector-curvature="0" fill="#747B81" d="M5438.952,1977.975l-96.339-514.656l-64.479,514.656
			h-124.273l-187.168-985.606h143.211l115.299,571.524l45.541-571.524h124.251l187.191,985.606H5438.952"/>
		<path id="path3888" inkscape:connector-curvature="0" fill="#747B81" d="M5088.58,1977.975h-124.251L4777.16,992.368h124.251
			L5088.58,1977.975"/>
		<path id="path3890" inkscape:connector-curvature="0" fill="#747B81" d="M7324.661,1797.91
			c6.29,36.589,31.562,66.326,68.174,66.326c36.589,0,61.333-29.737,54.999-66.326l-116.08-644.45
			c-6.312-36.577-41.065-66.337-77.654-66.337c-36.612,0-51.854,29.76-45.541,66.337L7324.661,1797.91L7324.661,1797.91z
			 M7203.279,1879.788l-139.24-795.821c-8.975-50.81,25.525-91.599,76.598-91.599h204.292c51.326,0,100.562,40.789,110.02,91.599
			l150.854,795.821c10.261,54.229-24.492,98.187-77.654,98.187h-211.408C7263.557,1977.975,7212.759,1934.017,7203.279,1879.788"/>
		<path id="path3892" inkscape:connector-curvature="0" fill="#747B81" d="M2555.023,1108.711l154.011,869.264H2584.52
			l-154.792-894.008c-8.964-50.81,25.525-91.599,76.598-91.599h185.332c51.326,0,100.574,40.789,110.042,91.599l165.844,894.008
			H2851.19l-157.948-869.264c-2.375-12.636-14.748-22.896-27.384-22.896h-91.61
			C2561.348,1085.814,2552.923,1096.075,2555.023,1108.711"/>
		<path id="path3894" inkscape:connector-curvature="0" fill="#747B81" d="M6745.229,1087.123l145.323,777.113h56.834
			c36.612,0,61.356-29.737,55.021-66.326l-122.645-644.45c-6.335-36.577-41.088-66.337-77.677-66.337H6745.229z M6783.929,1977.975
			l-187.168-985.606h283.783c51.348,0,100.562,40.789,110.042,91.599l150.832,795.821c10.26,54.229-24.469,98.187-77.654,98.187
			H6783.929"/>
		<path id="path3896" inkscape:connector-curvature="0" fill="#747B81" d="M3093.379,1532.032c-11.041,0-18.685,7.368-19.465,17.64
			c0,1.584,0,3.409,0.252,5.257l57.385,298.003c5.279,4.476,11.844,7.368,18.432,7.368h60.53c13.176,0,40.812-29.737,38.448-43.165
			l-51.601-243.246c-2.364-12.636-18.685-41.856-31.31-41.856H3093.379z M3155.241,1977.975H3030.99l-187.168-985.606h124.251
			l84.77,446.194h157.948c51.326,0,100.562,41.076,110.042,91.61l67.669,349.615c10.238,54.229-24.492,98.187-77.677,98.187
			H3155.241z M3073.915,1549.661l0.252,5.268C3073.915,1553.081,3073.915,1551.256,3073.915,1549.661"/>
		<path id="path3898" inkscape:connector-curvature="0" fill="#747B81" d="M3908.666,1852.932
			c5.279,4.476,11.867,7.368,18.455,7.368h56.582c13.176,0,40.79-29.737,38.173-43.165l-51.326-243.246
			c-2.387-12.636-33.697-41.856-46.344-41.856h-53.69c-11.064,0-18.685,7.368-19.488,17.64c0,1.584,0,3.409,0.252,5.257
			L3908.666,1852.932L3908.666,1852.932z M3996.351,1455.675h-7.896c35.533,13.956,102.399,36.876,109.492,74.498l67.669,349.615
			c10.26,54.229-24.492,98.187-77.677,98.187h-279.811l-187.191-985.606h124.274l84.77,446.194h88.19
			c11.569-10.788,12.625-30.793,14.186-40.801c2.387-14.473,4.751-32.894,2.915-47.389c-1.584-14.473-67.921-358.005-67.921-358.005
			h124.251c0,0,70.309,374.072,70.309,380.132c0.252,6.061,0.252,25.525-6.588,36.062c-4.499,6.84-12.648,22.908-21.6,28.704
			C4016.344,1448.318,3996.351,1455.675,3996.351,1455.675L3996.351,1455.675z M3851.028,1549.672l0.252,5.257
			C3851.028,1553.081,3851.028,1551.256,3851.028,1549.672"/>
		<path id="path3900" inkscape:connector-curvature="0" fill="#747B81" d="M3824.172,865.466l-11.592-219.018h-36.842l4.729,50.534
			h-21.852l-19.213-50.534h-32.641l80.569,219.018H3824.172z M6541.464,852.037c2.135,12.12,13.176,21.864,25.021,21.864h42.648
			c11.569,0,19.213-9.744,17.101-21.864l-10.26-53.953h-26.581l6.037,35.809c1.332,8.148-3.948,14.725-12.097,14.725
			c-8.171,0-15.815-6.576-17.124-14.725l-4.477-26.076c-1.033-1.572,1.056-8.952,2.64-9.732c3.42-2.101,37.645-58.97,37.645-63.193
			c1.056-2.111,1.332-3.42,1.332-4.2c-1.332-7.116-10.559-55.55-10.559-55.55c-2.089-11.063-12.877-20.279-24.193-20.279h-41.088
			c-11.316,0-18.937,9.216-16.825,20.279l9.48,55.55h28.67l-7.093-40.021c-1.309-8.149,4.223-14.737,12.097-14.737
			c8.172,0,15.815,6.588,17.376,14.737l5.532,32.388c-5.279,13.405-39.481,61.839-41.593,73.442
			c-1.584,1.309-2.364,8.424-2.112,13.703C6533.292,815.988,6541.464,852.037,6541.464,852.037L6541.464,852.037z M6001.283,852.037
			c2.112,12.12,13.153,21.864,24.998,21.864h42.649c11.569,0,19.488-9.744,17.124-21.864l-10.284-53.953h-26.581l6.06,35.809
			c1.308,8.148-3.948,14.725-12.12,14.725s-15.792-6.576-17.101-14.725l-4.477-26.076c-0.803-1.572,1.309-8.952,2.64-9.732
			c3.672-2.101,37.897-58.97,37.897-63.193c0.781-2.111,1.309-3.42,1.056-4.2c-1.056-7.116-10.536-55.55-10.536-55.55
			c-2.112-11.063-12.9-20.279-24.216-20.279h-41.088c-11.294,0-18.938,9.216-16.826,20.279l9.732,55.55h28.716l-7.391-40.021
			c-1.309-8.149,4.2-14.737,12.372-14.737c7.896,0,15.815,6.588,17.124,14.737l5.509,32.388
			c-5.256,13.405-39.481,61.839-41.593,73.442c-1.561,1.309-2.364,8.424-2.112,13.703
			C5993.135,815.988,6001.283,852.037,6001.283,852.037L6001.283,852.037z M6998.734,654.861l42.901,219.04h57.661l-4.453-27.12
			h-30.299l-13.405-67.922h30.529l-4.224-22.908h-30.529l-12.647-73.958h30.552l-4.224-27.132H6998.734L6998.734,654.861z
			 M6765.244,654.861l33.95,191.92h-17.124l5.027,27.12h64.754l-4.224-27.12h-16.573l-34.5-191.92H6765.244z M7378.098,872.846
			l34.729,0.527l-37.117-218.512h-27.361l17.628,115.838l-48.708-115.838h-18.96l-6.037,118.741l-21.325-118.741h-31.608
			l41.341,219.04h36.061l5.807-126.902L7378.098,872.846z M6258.485,754.115l-14.231,119.786h35.281l4.2-83.197l45.289,83.197
			h34.225l-71.089-126.627l-17.628-92.413h-31.585L6258.485,754.115z M3228.442,747.274c0,0,11.844-1.859,12.877-4.212
			c1.331-2.376,1.583-8.699,1.583-10.008c0-1.32-15.517-86.606-15.517-86.606h-27.637c0,0,14.737,76.334,15.265,79.502
			c0.252,3.42-0.275,7.368-0.803,10.513c-0.252,2.376-0.528,6.853-3.145,9.228h-19.488l-18.685-99.242h-27.384l41.317,219.018
			h61.885c11.569,0,19.465-9.722,17.101-21.853l-14.989-77.654c-1.584-8.424-16.343-15.517-24.217-18.685H3228.442L3228.442,747.274
			z M2870.931,646.448l42.901,219.018h57.661l-4.201-27.109h-30.552l-13.405-67.921h30.506l-4.2-22.908h-30.529l-12.625-73.97
			h30.529l-4.224-27.109H2870.931z M4713.692,864.41l35.028,0.527l-37.14-218.489h-27.361l17.651,115.827l-48.708-115.827h-19.212
			l-5.785,118.719l-21.347-118.719h-31.585l41.317,219.018h35.809l6.06-126.891L4713.692,864.41L4713.692,864.41z M4073.201,865.466
			l-41.593-219.018h-27.384l41.341,219.018H4073.201z M5312.36,865.466h31.562l-41.317-219.018h-27.385l-10.283,127.154
			l-25.502-127.154h-31.608l41.593,219.018h27.384l14.231-114.243L5312.36,865.466z M4358.062,865.466h31.585l-41.34-219.018
			h-27.637l-10.008,127.154l-25.524-127.154h-31.608l41.317,219.018h27.66l14.231-114.243L4358.062,865.466L4358.062,865.466z
			 M5515.573,646.448l33.949,191.908h-17.101l5.256,27.109h64.501l-4.224-27.109h-16.573l-34.225-191.908H5515.573L5515.573,646.448
			z M2403.4,865.466h31.86l-41.604-219.018h-27.384l-9.997,127.154l-25.537-127.154h-31.585l41.318,219.018h27.384l14.484-114.243
			L2403.4,865.466z M4925.1,646.448l42.925,219.018h57.638l-4.201-27.109h-30.552l-13.428-67.921h30.552l-4.224-22.908h-30.552
			l-12.625-73.97h30.529l-4.201-27.109H4925.1L4925.1,646.448z M2029.832,646.448l42.924,219.018h57.661l-4.224-27.109h-30.541
			l-13.176-67.921h30.299l-4.224-22.908h-30.541l-12.36-73.97h30.265l-4.212-27.109H2029.832z M3442.719,646.448l33.972,191.908
			h-17.124l5.257,27.109h64.524l-4.224-27.109h-16.596l-34.225-191.908H3442.719L3442.719,646.448z M2608.989,646.448
			l33.972,191.908h-17.112l5.257,27.109h64.501l-4.212-27.109h-16.584l-34.225-191.908H2608.989L2608.989,646.448z
			 M1952.958,907.059V584.851h5534.654v322.208H1952.958z M3766.511,718.054h15.815l5.234,55.549L3766.511,718.054z
			 M3200.53,766.476h11.844c2.892,0,9.732,6.336,10.26,9.228l11.339,53.966c0.505,3.156-5.532,9.732-8.424,9.732h-12.396
			c-1.561,0-3.145-0.792-4.201-1.837l-12.647-66.085c0-0.517,0-0.78,0-1.297C3196.306,768.082,3198.166,766.476,3200.53,766.476"/>
		<path id="path3902" inkscape:connector-curvature="0" fill="#747B81" d="M2114.085,1879.788c0,0-36.853-162.424-37.909-188.488
			c-1.056-23.689,2.364-55.825,9.744-61.873c9.469-52.118,182.957-293.251,177.953-330.116
			c-4.729-36.853-24.733-145.851-24.733-145.851c-6.324-36.577-31.608-66.337-68.185-66.337c-36.601,0-61.357,29.76-55.044,66.337
			l32.389,180.087h-129.771l-43.705-249.58c-8.952-50.81,25.537-91.599,76.61-91.599h185.332
			c51.325,0,100.551,40.789,110.031,91.599c0,0,47.653,232.984,47.389,249.58c-0.264,16.573-5.268,18.409-5.268,18.409v0.528
			c0,18.96-154.792,274.83-170.584,284.322c-6.84,3.937-12.108,28.692-12.373,43.957c-0.264,15.275,20.004,117.146,20.004,117.146
			c6.324,36.589,41.065,66.326,77.666,66.326c36.589,0,51.842-29.737,45.541-66.326l-27.9-161.104h130.299l46.069,242.981
			c10.272,54.229-24.48,98.187-77.654,98.187h-192.437C2174.363,1977.975,2123.565,1934.017,2114.085,1879.788"/>
	</g>
	<g id="text3017-7-6-55">
		<path id="path3156" inkscape:connector-curvature="0" fill="#D3D4D6" stroke="#D3D4D6" d="M618.155,871.326l-4.938,9.891
			c-0.573,0.99-1.401,2.641-2.484,4.953l-1.891,9.469h-2.172l1.891-9.469c0.011-0.792-0.047-1.625-0.172-2.5
			c-0.198-1.5-0.302-2.317-0.312-2.453l-1-9.891c0-0.01,0.011-0.057,0.031-0.141h2.203l0.906,12.234l5.781-12.234h2.188
			C618.176,871.258,618.166,871.305,618.155,871.326"/>
	</g>
	<g id="text3017-7-6-5-3">
		<path id="path3123" inkscape:connector-curvature="0" fill="#D3D4D6" stroke="#D3D4D6" d="M824.729,741.162h-2.234l-1.25-10.047
			l-5.281,10.047h-2.172c0.011-0.073,0.021-0.115,0.031-0.125l6.828-12.391c-1.167-7.917-1.739-11.896-1.719-11.938h2.281
			l1.078,9.281l4.906-9.281h2.172c-0.011,0.073-0.021,0.12-0.031,0.141l-6.391,11.672
			C824.167,736.907,824.761,741.12,824.729,741.162"/>
	</g>
	<g id="text3017-7-6-2-3">
		<path id="path3129" inkscape:connector-curvature="0" fill="#D3D4D6" stroke="#D3D4D6" d="M707.557,969.158
			c-0.104,0.511-0.349,0.928-0.734,1.25c-0.386,0.323-0.833,0.484-1.344,0.484h-8.062l4.891-24.453h8
			c0.511,0,0.896,0.162,1.156,0.484c0.261,0.323,0.339,0.74,0.234,1.25l-1.453,7.266c-0.136,0.646-0.536,1.188-1.203,1.625
			c-0.646,0.344-1.286,0.688-1.922,1.031l1.609,1.188c0.469,0.334,0.636,0.854,0.5,1.562L707.557,969.158 M707.994,955.72
			l1.469-7.359h-5.375l-1.766,8.828h3.203L707.994,955.72 M705.416,968.97l1.688-8.453l-1.922-1.438h-3.234l-1.969,9.891H705.416"/>
	</g>
	<g id="text3017-7-6-4-9">
		<path id="path3126" inkscape:connector-curvature="0" fill="#D3D4D6" stroke="#D3D4D6" d="M918.103,814.026h-2.156l0.234-5.438
			h-4.859l-1.953,5.438h-2.094l0.016-0.062l9.25-24.453h2.141L918.103,814.026 M916.274,806.666l0.516-13.25l-4.812,13.25H916.274"
			/>
	</g>
	<g id="g3182" transform="translate(-64.514153,-47.7499)">
		<path id="path4944-2" inkscape:connector-curvature="0" fill="#FF0000" d="M264.858,1108.737v0.188
			c-110.662,4.354-199.031,95.426-199.031,207.156c0,114.508,92.835,207.312,207.344,207.312c42.683,0,82.374-12.89,115.344-35
			c5.808-3.895,7.644-5.033,13.406-7.875c5.579-2.751,12.507-4.656,16.406-4.656h129.25h3.875h129.281
			c3.899,0,10.797,1.905,16.375,4.656c5.763,2.842,7.63,3.98,13.438,7.875c32.971,22.11,72.63,35,115.312,35
			c114.509,0,207.344-92.805,207.344-207.312c0-111.73-88.369-202.802-199.031-207.156v-0.188h-8.312H551.452h-3.875H273.17H264.858
			L264.858,1108.737z"/>
		
			<path id="path5631-77" sodipodi:nodetypes="ccccaacaasaczssssscccaaasczccsscczczccccccccccccccc" inkscape:connector-curvature="0" fill="#FF0000" d="
			M718.623,1108.044h40.321h33.934h36.731c0,0,2.673-0.038,4.009,0c3.775,0.108,7.547,0.344,11.312,0.649
			c3.465,0.282,6.797,0.624,10.372,1.092c3.629,0.519,6.62,0.792,9.903,1.364c2.632,0.459,5.245,1.029,7.842,1.659
			c2.665,0.646,5.323,1.408,7.936,2.171c2.152,0.628,4.251,1.289,6.362,1.978c3.686,1.201,7.936,2.66,11.008,3.757
			c1.704,0.635,3.04,1.144,4.948,1.922c1.909,0.778,4.38,1.809,6.489,2.775c2.186,1.001,4.39,2.044,6.512,3.108
			c1.998,1.002,4.023,2.044,5.965,3.088c0.938,0.504,1.808,0.961,2.719,1.442c0.643,0.34,1.285,0.698,1.928,1.047
			c0.335,0.181,1.006,0.544,1.006,0.544l0.659-5.455c-0.266-0.814-1.01-1.405-1.661-1.732c-1.128-0.705-2.155-1.318-3.233-1.976
			c-1.444-0.881-2.867-1.797-4.335-2.637c-1.007-0.577-2.028-1.128-3.064-1.648c-1.23-0.617-2.499-1.156-3.741-1.747
			c-1.015-0.481-1.97-0.972-3.032-1.467c-1.063-0.495-0.82-0.464-3.346-1.5c-2.526-1.035-8.438-3.128-11.913-4.44
			c-2.672-0.945-4.095-1.388-5.902-2.02c-3.302-1.059-6.151-1.697-10.35-2.802c-2.541-0.668-3.778-1.186-6.642-1.681
			c-2.535-0.438-4.498-0.888-6.438-1.165l-2.412-0.367c0,0-1.773-0.271-3.099-0.445s-3.509-0.442-4.854-0.574
			c-1.516-0.145-2.58-0.298-5.993-0.708s-7.891-0.706-11.783-1.03c-1.974-0.166-6.242-0.374-6.242-0.374h-12.394h-16.497h-15.425
			h-15.03h-15.673h-14.832h-10.564h-2.719l-3.478,0.313l-2.604,0.956l-1.747,1.335l-1.006,1.541L718.623,1108.044z"/>
		
			<path id="path5631-7-3" sodipodi:nodetypes="ccccaacaasaczssssscccaaasczccsscczczccccccccccccccc" inkscape:connector-curvature="0" fill="#FF0000" d="
			M380.419,1108.044h-40.32h-33.935h-36.731c0,0-2.673-0.038-4.009,0c-3.775,0.108-7.547,0.344-11.311,0.649
			c-3.465,0.282-6.797,0.624-10.372,1.092c-3.629,0.519-6.621,0.792-9.904,1.364c-2.632,0.459-5.245,1.029-7.841,1.659
			c-2.666,0.646-5.324,1.408-7.937,2.171c-2.152,0.628-4.25,1.289-6.361,1.978c-3.687,1.201-7.936,2.66-11.009,3.757
			c-1.704,0.635-3.04,1.144-4.948,1.922c-1.909,0.778-4.379,1.809-6.489,2.775c-2.185,1.001-4.39,2.044-6.511,3.108
			c-1.998,1.002-4.023,2.044-5.966,3.088c-0.938,0.504-1.807,0.961-2.718,1.442c-0.643,0.34-1.285,0.698-1.928,1.047
			c-0.335,0.181-1.005,0.544-1.005,0.544l-0.659-5.455c0.266-0.814,1.01-1.405,1.661-1.732c1.128-0.705,2.155-1.318,3.234-1.976
			c1.444-0.881,2.867-1.797,4.334-2.637c1.007-0.577,2.028-1.128,3.065-1.648c1.23-0.617,2.499-1.156,3.741-1.747
			c1.014-0.481,1.97-0.972,3.032-1.467c1.063-0.495,0.82-0.464,3.346-1.5c2.526-1.035,8.438-3.128,11.913-4.44
			c2.672-0.945,4.095-1.388,5.903-2.02c3.301-1.059,6.151-1.697,10.35-2.802c2.541-0.668,3.778-1.186,6.642-1.681
			c2.535-0.438,4.498-0.888,6.437-1.165l2.413-0.367c0,0,1.773-0.271,3.098-0.445c1.325-0.174,3.509-0.442,4.854-0.574
			c1.516-0.145,2.581-0.298,5.994-0.708c3.413-0.41,7.891-0.706,11.783-1.03c1.974-0.166,6.243-0.374,6.243-0.374h12.393h16.497
			h15.425h15.03h15.672h14.833h10.564h2.719l3.477,0.313l2.604,0.956l1.747,1.335l1.005,1.541L380.419,1108.044z"/>
	</g>
	<text transform="matrix(1 0 0 1 197.0527 1290.5912)" fill="#FFFFFF" font-family="'Arial-BoldMT'" font-size="72">DISCONECTED</text>
	
		<path id="path5631-7-4" sodipodi:nodetypes="ccccaacaasaczssssscccaaasczccsscczczccccccccccccccc" inkscape:connector-curvature="0" fill="#FFFFFF" d="
		M1178.642,635.774h-40.32h-33.935h-36.73c0,0-2.674-0.039-4.01,0c-3.774,0.108-7.547,0.343-11.311,0.649
		c-3.465,0.282-6.797,0.624-10.372,1.092c-3.63,0.519-6.621,0.792-9.903,1.364c-2.632,0.459-5.245,1.03-7.842,1.659
		c-2.666,0.646-5.324,1.409-7.937,2.171c-2.151,0.628-4.25,1.29-6.361,1.978c-3.687,1.202-7.936,2.66-11.009,3.757
		c-1.703,0.634-3.04,1.143-4.948,1.921s-4.379,1.809-6.489,2.775c-2.185,1.001-4.39,2.044-6.511,3.108
		c-1.998,1.002-4.023,2.045-5.966,3.089c-0.938,0.504-1.807,0.96-2.718,1.442c-0.644,0.34-1.285,0.698-1.929,1.046
		c-0.335,0.182-1.005,0.544-1.005,0.544l-0.659-5.455c0.266-0.814,1.01-1.405,1.66-1.732c1.128-0.705,2.155-1.318,3.234-1.976
		c1.443-0.88,2.866-1.796,4.334-2.637c1.007-0.577,2.028-1.128,3.065-1.648c1.23-0.617,2.498-1.156,3.741-1.747
		c1.014-0.482,1.97-0.972,3.032-1.467s0.819-0.464,3.346-1.5c2.525-1.036,8.438-3.128,11.912-4.441
		c2.673-0.945,4.096-1.388,5.903-2.019c3.301-1.059,6.15-1.697,10.35-2.801c2.54-0.668,3.777-1.186,6.642-1.681
		c2.535-0.438,4.498-0.888,6.437-1.165l2.413-0.368c0,0,1.773-0.271,3.099-0.445c1.324-0.173,3.508-0.442,4.854-0.574
		c1.517-0.145,2.581-0.298,5.994-0.708s7.891-0.706,11.783-1.03c1.974-0.166,6.242-0.374,6.242-0.374h12.394h16.496h15.426h15.03
		h15.673h14.832h10.563h2.72l3.478,0.313l2.604,0.956l1.747,1.335l1.005,1.541L1178.642,635.774z"/>
	<path id="rect6211-4-4-2" fill="#FFFFFF" d="M1184.815,662.283l40.667-30.592c6.757-5.083,16.354-3.726,21.438,3.031v0
		c5.082,6.757,3.726,16.354-3.031,21.437l-40.667,30.592c-6.757,5.083-16.354,3.726-21.438-3.031v0
		C1176.702,676.963,1178.059,667.365,1184.815,662.283z"/>
	
		<path id="path6149-4" sodipodi:ry="28.928564" sodipodi:rx="28.928564" sodipodi:cy="468.91046" sodipodi:cx="1216.689" sodipodi:type="arc" opacity="0.99" fill="#FFFFFF" stroke="#FFFFFF" stroke-width="0.7851" enable-background="new    " d="
		M1324.202,665.949c0,20.35-16.497,36.847-36.847,36.847s-36.847-16.497-36.847-36.847s16.497-36.847,36.847-36.847
		S1324.202,645.599,1324.202,665.949z"/>
	
		<path id="path6000-5-0" inkscape:transform-center-y="-5.1055936" inkscape:transform-center-x="-2.3103301" inkscape:connector-curvature="0" fill="#FFFFFF" stroke="#FFFFFF" d="
		M1358.194,661.728l-32.992-0.031l16.52-32.595L1358.194,661.728z"/>
	<g id="g3172" transform="translate(266.18968,-324.31703)">
		<path id="path5695-4" inkscape:connector-curvature="0" fill="#C4C1BC" stroke="#747B81" stroke-width="1.1159" d="
			M1207.906,953.477c-63.433,0-114.844,51.411-114.844,114.844s51.411,114.844,114.844,114.844s114.875-51.411,114.875-114.844
			S1271.339,953.477,1207.906,953.477z M1207.937,995.883l16.469,32.625l-33-0.031L1207.937,995.883L1207.937,995.883z
			 M1168.062,1051.821l0.031,33l-32.625-16.469L1168.062,1051.821L1168.062,1051.821z M1247.75,1051.821l32.594,16.531
			l-32.625,16.469L1247.75,1051.821L1247.75,1051.821z M1224.406,1108.102l-16.469,32.625l-16.531-32.594L1224.406,1108.102
			L1224.406,1108.102z"/>
		
			<path id="rect4752-7-2" inkscape:connector-curvature="0" fill="#485053" stroke="#1A1C1B" stroke-width="3" stroke-linejoin="bevel" d="
			M1190.594,987.383c-4.56,0-8.219,3.659-8.219,8.219v47.156h-47.156c-4.56,0-8.25,3.689-8.25,8.25v34.594
			c0,4.56,3.69,8.219,8.25,8.219h47.156v47.156c0,4.56,3.659,8.25,8.219,8.25h34.625c4.561,0,8.219-3.69,8.219-8.25v-47.156h47.156
			c4.561,0,8.25-3.659,8.25-8.219v-34.594c0-4.561-3.689-8.25-8.25-8.25h-47.156v-47.156c0-4.56-3.658-8.219-8.219-8.219H1190.594z
			 M1207.937,995.883l16.469,32.625l-33-0.031L1207.937,995.883L1207.937,995.883z M1168.062,1051.821l0.031,33l-32.625-16.469
			L1168.062,1051.821L1168.062,1051.821z M1247.75,1051.821l32.594,16.531l-32.625,16.469L1247.75,1051.821L1247.75,1051.821z
			 M1224.406,1108.102l-16.469,32.625l-16.531-32.594L1224.406,1108.102L1224.406,1108.102z"/>
	</g>
</g>
<circle fill="#C4C1BC" cx="620.541" cy="346.29" r="66.5"/>
<circle fill="#485053" cx="620.541" cy="345.29" r="44.586"/>
<circle fill="#C4C1BC" cx="332.005" cy="346.552" r="66.5"/>
<circle fill="#485053" cx="331.005" cy="345.552" r="44.586"/>
</svg>
